<svg width="36" height="43" viewBox="0 0 36 43" fill="none" xmlns="http://www.w3.org/2000/svg">
<mask id="mask0_104_85" style="mask-type:alpha" maskUnits="userSpaceOnUse" x="0" y="0" width="36" height="43">
<rect width="35.037" height="43" rx="3" fill="#ECECEC"/>
</mask>
<g mask="url(#mask0_104_85)">
<rect x="-0.796295" y="-1.59259" width="38.2222" height="46.1852" fill="#F5F2F2"/>
<path d="M19.2096 51.1658C28.6816 51.1658 36.0076 47.4658 41.3356 42.9518V20.4558H18.8396V30.2978H30.3096V37.6978C27.4236 39.7698 23.7236 40.8058 19.5796 40.8058C10.4036 40.8058 3.89156 33.8498 3.89156 24.3778V24.2298C3.89156 15.4238 10.4776 8.09777 18.7656 8.09777C24.7596 8.09777 28.3116 10.0218 32.3076 13.3518L39.4856 4.69377C34.0836 0.105769 28.4596 -2.41023 19.1356 -2.41023C3.44756 -2.41023 -8.02244 9.65177 -8.02244 24.3778V24.5258C-8.02244 39.8438 3.07756 51.1658 19.2096 51.1658Z" fill="#E3E1E1"/>
<path d="M11.0928 17.3652C13.0128 17.3652 14.4978 16.6152 15.5778 15.7002V11.1402H11.0178V13.1352H13.3428V14.6352C12.7578 15.0552 12.0078 15.2652 11.1678 15.2652C9.30777 15.2652 7.98777 13.8552 7.98777 11.9352V11.9052C7.98777 10.1202 9.32277 8.63518 11.0028 8.63518C12.2178 8.63518 12.9378 9.02518 13.7478 9.70018L15.2028 7.94518C14.1078 7.01518 12.9678 6.50518 11.0778 6.50518C7.89777 6.50518 5.57277 8.95018 5.57277 11.9352V11.9652C5.57277 15.0702 7.82277 17.3652 11.0928 17.3652ZM16.7505 17.1852H19.0605V13.8252H20.8755L23.1255 17.1852H25.8255L23.2605 13.4352C24.5955 12.9402 25.5105 11.8752 25.5105 10.1802V10.1502C25.5105 9.16018 25.1955 8.33518 24.6105 7.75018C23.9205 7.06018 22.8855 6.68518 21.5505 6.68518H16.7505V17.1852ZM19.0605 11.7852V8.77018H21.3555C22.4805 8.77018 23.1705 9.28018 23.1705 10.2702V10.3002C23.1705 11.1852 22.5255 11.7852 21.4005 11.7852H19.0605ZM26.6453 17.1852H28.9553V6.68518H26.6453V17.1852Z" fill="#404059"/>
<rect x="6.37038" y="23.8889" width="19.9074" height="2.38889" fill="#404059"/>
<rect x="6.37038" y="28.6667" width="14.3333" height="2.38889" fill="#404059"/>
<rect x="6.37038" y="33.4445" width="17.5185" height="2.38889" fill="#404059"/>
</g>
</svg>
