<svg width="22" height="17" viewBox="0 0 22 17" fill="none" xmlns="http://www.w3.org/2000/svg">
<path d="M21.4656 5.81438L20.4179 5.24435L10.9879 0.0621859H10.8727C10.8084 0.0353203 10.7418 0.0144997 10.6736 0H10.2859C10.2143 0.0145093 10.1442 0.0353207 10.0764 0.0621859H9.96111L0.531166 5.24435C0.369916 5.33474 0.235793 5.46583 0.142479 5.62424C0.0491647 5.78265 0 5.9627 0 6.14604C0 6.32938 0.0491647 6.50944 0.142479 6.66785C0.235793 6.82625 0.369916 6.95734 0.531166 7.04774L3.14012 8.47802V13.3907C3.14012 14.2153 3.47129 15.0062 4.06077 15.5893C4.65026 16.1724 5.44977 16.5 6.28343 16.5H14.6656C15.4993 16.5 16.2988 16.1724 16.8883 15.5893C17.4777 15.0062 17.8089 14.2153 17.8089 13.3907V8.47802L19.9045 7.31721V10.2814C19.9045 10.5563 20.0148 10.8199 20.2113 11.0143C20.4078 11.2086 20.6743 11.3178 20.9522 11.3178C21.2301 11.3178 21.4966 11.2086 21.6931 11.0143C21.8896 10.8199 22 10.5563 22 10.2814V6.71608C21.9997 6.53243 21.95 6.35216 21.8561 6.19372C21.7622 6.03529 21.6275 5.90437 21.4656 5.81438V5.81438ZM15.7134 13.3907C15.7134 13.6656 15.603 13.9292 15.4065 14.1236C15.21 14.3179 14.9435 14.4271 14.6656 14.4271H6.28343C6.00554 14.4271 5.73904 14.3179 5.54254 14.1236C5.34605 13.9292 5.23566 13.6656 5.23566 13.3907V9.62845L9.96111 12.2195L10.1183 12.2817H10.2126C10.2995 12.2926 10.3875 12.2926 10.4745 12.2817C10.5615 12.2926 10.6495 12.2926 10.7365 12.2817H10.8308C10.8864 12.2701 10.9396 12.2491 10.9879 12.2195L15.7134 9.62845V13.3907ZM10.4745 10.1363L3.20298 6.13568L10.4745 2.13505L17.746 6.13568L10.4745 10.1363Z" fill="#0994A7"/>
</svg>
