<svg width="22" height="22" viewBox="0 0 22 22" fill="none" xmlns="http://www.w3.org/2000/svg">
<path d="M18.7968 3.24957C18.7891 3.24077 18.7858 3.22868 18.7781 3.22098C18.7704 3.21328 18.7583 3.20999 18.7495 3.20119C16.6919 1.15115 13.9052 0 11 0C8.09479 0 5.30806 1.15115 3.2505 3.20119C3.2417 3.20999 3.2307 3.21219 3.2219 3.22098C3.2131 3.22978 3.2109 3.24077 3.2032 3.24957C1.6701 4.78929 0.627691 6.74844 0.207526 8.87976C-0.21264 11.0111 0.00827267 13.219 0.842383 15.225C1.67649 17.2309 3.08642 18.9449 4.89421 20.1507C6.70201 21.3565 8.82665 22 11 22C13.1733 22 15.298 21.3565 17.1058 20.1507C18.9136 18.9449 20.3235 17.2309 21.1576 15.225C21.9917 13.219 22.2126 11.0111 21.7925 8.87976C21.3723 6.74844 20.3299 4.78929 18.7968 3.24957ZM11 19.7911C9.6825 19.7906 8.38197 19.4939 7.19475 18.9229C6.00752 18.352 4.96401 17.5214 4.1415 16.4927H8.558C8.86394 16.8383 9.23984 17.1151 9.66082 17.3047C10.0818 17.4942 10.5383 17.5922 11 17.5922C11.4617 17.5922 11.9182 17.4942 12.3392 17.3047C12.7602 17.1151 13.1361 16.8383 13.442 16.4927H17.8585C17.036 17.5214 15.9925 18.352 14.8053 18.9229C13.618 19.4939 12.3175 19.7906 11 19.7911ZM9.9 14.2937C9.9 14.0763 9.96451 13.8637 10.0854 13.6829C10.2063 13.5021 10.378 13.3612 10.579 13.2779C10.78 13.1947 11.0012 13.173 11.2146 13.2154C11.428 13.2578 11.624 13.3625 11.7778 13.5163C11.9317 13.67 12.0364 13.866 12.0789 14.0792C12.1213 14.2925 12.0995 14.5136 12.0163 14.7145C11.933 14.9154 11.792 15.0871 11.6111 15.2079C11.4302 15.3287 11.2176 15.3932 11 15.3932C10.7084 15.3929 10.4287 15.277 10.2225 15.0708C10.0163 14.8647 9.90029 14.5852 9.9 14.2937ZM19.151 14.2959L19.14 14.2937H14.3C14.298 13.6138 14.0854 12.9511 13.6915 12.3968C13.2976 11.8424 12.7416 11.4235 12.1 11.1976V7.69692C12.1 7.40532 11.9841 7.12567 11.7778 6.91948C11.5715 6.71328 11.2917 6.59745 11 6.59745C10.7083 6.59745 10.4285 6.71328 10.2222 6.91948C10.0159 7.12567 9.9 7.40532 9.9 7.69692V11.1976C9.25836 11.4235 8.70241 11.8424 8.3085 12.3968C7.91458 12.9511 7.70202 13.6138 7.7 14.2937H2.86L2.849 14.2959C2.56301 13.5903 2.37071 12.8503 2.277 12.0948H3.3C3.59174 12.0948 3.87153 11.979 4.07782 11.7728C4.28411 11.5666 4.4 11.2869 4.4 10.9953C4.4 10.7037 4.28411 10.4241 4.07782 10.2179C3.87153 10.0117 3.59174 9.89585 3.3 9.89585H2.277C2.4735 8.333 3.08881 6.85224 4.0579 5.61013L4.7773 6.33028C4.87877 6.43529 5.00015 6.51905 5.13436 6.57667C5.26856 6.63429 5.4129 6.66462 5.55896 6.66589C5.70502 6.66716 5.84987 6.63934 5.98505 6.58406C6.12024 6.52878 6.24305 6.44714 6.34634 6.3439C6.44962 6.24067 6.5313 6.11792 6.58661 5.98279C6.64191 5.84767 6.66975 5.7029 6.66848 5.55691C6.66721 5.41092 6.63686 5.26665 6.57921 5.13251C6.52156 4.99837 6.43776 4.87705 6.3327 4.77563L5.6133 4.05548C6.85586 3.08748 8.3369 2.47286 9.9 2.27654V3.29904C9.9 3.59064 10.0159 3.87029 10.2222 4.07648C10.4285 4.28267 10.7083 4.39851 11 4.39851C11.2917 4.39851 11.5715 4.28267 11.7778 4.07648C11.9841 3.87029 12.1 3.59064 12.1 3.29904V2.27654C13.6631 2.47286 15.1441 3.08748 16.3867 4.05548L15.6673 4.77563C15.5622 4.87705 15.4784 4.99837 15.4208 5.13251C15.3631 5.26665 15.3328 5.41092 15.3315 5.55691C15.3303 5.7029 15.3581 5.84767 15.4134 5.98279C15.4687 6.11792 15.5504 6.24067 15.6537 6.3439C15.7569 6.44714 15.8798 6.52878 16.0149 6.58406C16.1501 6.63934 16.295 6.66716 16.441 6.66589C16.5871 6.66462 16.7314 6.63429 16.8656 6.57667C16.9998 6.51905 17.1212 6.43529 17.2227 6.33028L17.9421 5.61013C18.9116 6.85213 19.5273 8.33289 19.7241 9.89585H18.7C18.4083 9.89585 18.1285 10.0117 17.9222 10.2179C17.7159 10.4241 17.6 10.7037 17.6 10.9953C17.6 11.2869 17.7159 11.5666 17.9222 11.7728C18.1285 11.979 18.4083 12.0948 18.7 12.0948H19.723C19.6293 12.8503 19.437 13.5903 19.151 14.2959Z" fill="#E2723A"/>
</svg>
