<svg width="28" height="28" viewBox="0 0 28 28" fill="none" xmlns="http://www.w3.org/2000/svg">
<rect width="28" height="28" rx="3" fill="#08B0B6"/>
<path d="M23.5142 11.2858L22.5617 10.7676L13.989 6.05653H13.8842C13.8258 6.03211 13.7653 6.01318 13.7033 6H13.3508C13.2858 6.01319 13.222 6.03211 13.1603 6.05653H13.0556L4.48288 10.7676C4.33629 10.8498 4.21436 10.9689 4.12953 11.1129C4.0447 11.257 4 11.4206 4 11.5873C4 11.754 4.0447 11.9177 4.12953 12.0617C4.21436 12.2057 4.33629 12.3249 4.48288 12.407L6.85465 13.7073V18.1734C6.85465 18.923 7.15571 19.642 7.69161 20.1721C8.22751 20.7022 8.95434 21 9.71221 21H17.3324C18.0902 21 18.8171 20.7022 19.353 20.1721C19.8889 19.642 20.1899 18.923 20.1899 18.1734V13.7073L22.095 12.652V15.3467C22.095 15.5966 22.1953 15.8363 22.3739 16.013C22.5526 16.1897 22.7949 16.2889 23.0475 16.2889C23.3001 16.2889 23.5424 16.1897 23.721 16.013C23.8996 15.8363 24 15.5966 24 15.3467V12.1055C23.9997 11.9386 23.9546 11.7747 23.8692 11.6307C23.7839 11.4866 23.6613 11.3676 23.5142 11.2858ZM18.2849 18.1734C18.2849 18.4233 18.1845 18.6629 18.0059 18.8396C17.8273 19.0163 17.585 19.1156 17.3324 19.1156H9.71221C9.45959 19.1156 9.21731 19.0163 9.03868 18.8396C8.86004 18.6629 8.75969 18.4233 8.75969 18.1734V14.7531L13.0556 17.1087L13.1984 17.1652H13.2842C13.3632 17.1751 13.4432 17.1751 13.5223 17.1652C13.6014 17.1751 13.6814 17.1751 13.7604 17.1652H13.8461C13.8967 17.1547 13.9451 17.1355 13.989 17.1087L18.2849 14.7531V18.1734ZM13.5223 15.2148L6.9118 11.5779L13.5223 7.94095L20.1328 11.5779L13.5223 15.2148Z" fill="#195457"/>
</svg>
