<svg width="170" height="40" viewBox="0 0 170 40" fill="none" xmlns="http://www.w3.org/2000/svg">
<g clip-path="url(#clip0_107_278)">
<path d="M0 25.2504V0.409065C0 0.171993 0.184139 0 0.437952 0H9.77927C16.4083 0 21.6089 4.34631 21.6089 10.4683C21.6089 16.5904 16.2241 21.3504 9.41099 21.3504H5.31017V25.2504C5.31017 25.4922 5.12603 25.6595 4.87222 25.6595H0.437952C0.179162 25.6595 0 25.4875 0 25.2504ZM9.34132 16.7298C13.2232 16.7298 16.2988 14.1639 16.2988 10.4683C16.2988 6.77281 13.1485 4.61592 9.66978 4.61592H5.56896C5.42463 4.61592 5.31017 4.68565 5.31017 4.85764V16.7298H9.34132Z" fill="#0994A7"/>
<path d="M24.1769 25.2504V6.15921C24.1769 5.91749 24.3611 5.75014 24.6149 5.75014H28.3126C28.5714 5.75014 28.7505 5.92214 28.7505 6.15921V7.08425C30.1788 5.98721 32.1596 5.50842 33.5481 5.50842C34.8669 5.50842 35.8175 5.64323 36.6237 5.91749C36.9173 6.01975 36.9173 6.22429 36.8825 6.39628L36.0414 9.54329C35.9668 9.81755 35.7478 9.91981 35.5288 9.88727C35.0162 9.75247 34.3195 9.71528 33.8417 9.71528C31.4628 9.71528 29.1138 11.0494 29.1138 14.7775V25.2458C29.1138 25.52 28.9297 25.6548 28.6759 25.6548H24.6099C24.3511 25.6548 24.1719 25.52 24.1719 25.2458L24.1769 25.2504Z" fill="#0994A7"/>
<path d="M35.6433 15.67C35.6433 9.98953 40.7345 5.33643 46.8161 5.33643C52.8976 5.33643 58.0237 9.98953 58.0237 15.67C58.0237 16.8693 57.5857 17.8268 56.5207 17.8268H41.0232C41.8642 20.1883 44.0988 21.8292 46.8459 21.8292C49.19 21.8292 50.9119 20.9041 52.2307 19.398C52.3751 19.226 52.6339 19.1563 52.8877 19.3283L55.819 21.448C56.1126 21.6525 56.0379 21.8942 55.9285 22.029C53.6939 24.595 50.5088 26.1011 46.8061 26.1011C40.7246 26.1011 35.6334 21.4155 35.6334 15.6653L35.6433 15.67ZM41.0281 13.5503H52.7135C51.7978 11.2586 49.4886 9.61766 46.8161 9.61766C44.1436 9.61766 41.8692 11.1935 41.0281 13.5503Z" fill="#0994A7"/>
<path d="M59.6361 22.7867C59.4918 22.6519 59.4171 22.4428 59.6361 22.1732L61.8358 19.742C62.0548 19.5003 62.3136 19.4677 62.5326 19.6397C64.4735 21.1087 66.3049 21.8989 68.9774 21.8989C71.212 21.8989 72.6403 21.1133 72.6403 20.1185C72.6403 17.0738 60.1139 18.5102 60.1139 11.2911C60.1139 7.52585 63.9211 5.33643 68.5046 5.33643C72.3517 5.33643 75.064 6.74026 76.9651 8.31144C77.1492 8.48343 77.1841 8.68797 76.9999 8.8925L74.6907 11.3887C74.5066 11.5607 74.2528 11.5607 74.0686 11.4213C72.6403 10.3614 70.9532 9.46891 68.4648 9.46891C66.3398 9.46891 65.0558 10.1197 65.0558 10.9425C65.0558 13.8152 77.7315 12.6856 77.7315 19.4631C77.7315 23.1586 74.3224 26.1011 68.9376 26.1011C64.9811 26.1011 62.015 24.9018 59.6311 22.7821L59.6361 22.7867Z" fill="#0994A7"/>
<path d="M79.5629 15.67C79.5629 9.98953 84.6541 5.33643 90.7357 5.33643C96.8172 5.33643 101.943 9.98953 101.943 15.67C101.943 16.8693 101.505 17.8268 100.44 17.8268H84.9428C85.7838 20.1883 88.0184 21.8292 90.7655 21.8292C93.1096 21.8292 94.8315 20.9041 96.1504 19.398C96.2947 19.226 96.5535 19.1563 96.8073 19.3283L99.7386 21.448C100.032 21.6525 99.9576 21.8942 99.8481 22.029C97.6135 24.595 94.4284 26.1011 90.7257 26.1011C84.6442 26.1011 79.553 21.4155 79.553 15.6653L79.5629 15.67ZM84.9477 13.5503H96.6331C95.7174 11.2586 93.4082 9.61766 90.7357 9.61766C88.0632 9.61766 85.7888 11.1935 84.9477 13.5503Z" fill="#0994A7"/>
<path d="M104.138 25.2504V6.15921C104.138 5.91749 104.322 5.75015 104.576 5.75015H108.274C108.532 5.75015 108.712 5.92214 108.712 6.15921V7.08425C110.508 5.81987 112.743 5.30389 114.753 5.30389C120.138 5.30389 123.547 8.65543 123.547 13.5828V25.2504C123.547 25.5247 123.363 25.6595 123.109 25.6595H119.043C118.785 25.6595 118.605 25.5247 118.605 25.2504V13.7548C118.605 10.6403 116.59 9.58048 114.211 9.58048C111.389 9.58048 109.085 11.3608 109.085 14.3033V25.2504C109.085 25.5247 108.901 25.6595 108.647 25.6595H104.581C104.322 25.6595 104.143 25.5247 104.143 25.2504H104.138Z" fill="#0994A7"/>
<path d="M126.12 15.67C126.12 9.98953 131.211 5.33643 137.293 5.33643C140.811 5.33643 143.962 6.80999 146.122 9.37594C146.231 9.51074 146.231 9.785 146.047 9.92446L143.081 12.1464C142.822 12.3184 142.568 12.2487 142.424 12.0767C141.14 10.5009 139.309 9.61301 137.298 9.61301C133.854 9.61301 131.072 12.4532 131.072 15.67V15.7025C131.072 18.989 133.854 21.8292 137.298 21.8292C139.642 21.8292 141.364 20.9041 142.648 19.398C142.792 19.226 143.051 19.1563 143.305 19.3283L146.311 21.448C146.604 21.6525 146.53 21.8942 146.42 22.029C144.186 24.595 141.001 26.1011 137.298 26.1011C131.216 26.1011 126.125 21.4155 126.125 15.6653L126.12 15.67Z" fill="#0994A7"/>
<path d="M147.62 15.67C147.62 9.98953 152.711 5.33643 158.792 5.33643C164.874 5.33643 170 9.98953 170 15.67C170 16.8693 169.562 17.8268 168.497 17.8268H153C153.841 20.1883 156.075 21.8292 158.822 21.8292C161.166 21.8292 162.888 20.9041 164.207 19.398C164.351 19.226 164.61 19.1563 164.864 19.3283L167.795 21.448C168.089 21.6525 168.014 21.8942 167.905 22.029C165.67 24.595 162.485 26.1011 158.782 26.1011C152.701 26.1011 147.61 21.4155 147.61 15.6653L147.62 15.67ZM153.005 13.5503H164.69C163.774 11.2586 161.465 9.61766 158.792 9.61766C156.12 9.61766 153.846 11.1935 153.005 13.5503Z" fill="#0994A7"/>
<path d="M2.84669 33.2922C4.16552 33.2922 4.84235 33.9663 4.84235 33.9663L4.46412 34.5008C4.46412 34.5008 3.8271 33.943 2.88152 33.943C1.65227 33.943 0.855997 34.8123 0.855997 35.9C0.855997 36.9878 1.67218 37.9221 2.89148 37.9221C3.92664 37.9221 4.58356 37.2527 4.58356 37.2527L4.99663 37.7687C4.99663 37.7687 4.24515 38.5822 2.86659 38.5822C1.2193 38.5822 0.0646973 37.4061 0.0646973 35.9047C0.0646973 34.4032 1.25911 33.2876 2.85166 33.2876L2.84669 33.2922Z" fill="#D44416"/>
<path d="M9.51055 33.2923C11.0932 33.2923 12.3224 34.4312 12.3224 35.9047C12.3224 37.3783 11.0932 38.5869 9.51055 38.5869C7.92795 38.5869 6.69373 37.4108 6.69373 35.9047C6.69373 34.3986 7.92795 33.2923 9.51055 33.2923ZM9.51055 37.9268C10.6303 37.9268 11.5311 37.0575 11.5311 35.9047C11.5311 34.7519 10.6303 33.9477 9.51055 33.9477C8.39079 33.9477 7.48503 34.7891 7.48503 35.9047C7.48503 37.0204 8.39577 37.9268 9.51055 37.9268Z" fill="#D44416"/>
<path d="M14.7759 33.3806H15.5821L16.8412 36.1511C16.9656 36.4347 17.1149 36.8391 17.1149 36.8391H17.1299C17.1299 36.8391 17.2792 36.4347 17.4036 36.1511L18.6627 33.3806H19.4689L19.9119 38.5032H19.1504L18.8767 35.2772C18.8518 34.9657 18.8667 34.5241 18.8667 34.5241H18.8518C18.8518 34.5241 18.6876 34.9936 18.5582 35.2772L17.4633 37.5828H16.7815L15.6966 35.2772C15.5721 35.0029 15.4029 34.5102 15.4029 34.5102H15.388C15.388 34.5102 15.398 34.9657 15.3731 35.2772L15.1093 38.5032H14.3429L14.7858 33.3806H14.7759Z" fill="#D44416"/>
<path d="M22.2161 33.3806H22.9825V36.6903C22.9825 37.4759 23.525 37.9315 24.366 37.9315C25.2071 37.9315 25.7645 37.4759 25.7645 36.6764V33.3853H26.5309V36.695C26.5309 37.8338 25.655 38.5962 24.371 38.5962C23.087 38.5962 22.2111 37.8338 22.2111 36.695V33.3853L22.2161 33.3806Z" fill="#D44416"/>
<path d="M29.0093 33.3806H29.7708L32.2094 36.7089C32.4134 36.9832 32.6672 37.448 32.6672 37.448H32.6822C32.6822 37.448 32.6274 36.9925 32.6274 36.7089V33.3806H33.3938V38.5032H32.6423L30.1938 35.1796C29.9898 34.896 29.7359 34.4312 29.7359 34.4312H29.721C29.721 34.4312 29.7758 34.8867 29.7758 35.1796V38.5032H29.0093V33.3806Z" fill="#D44416"/>
<path d="M35.9518 33.3806H36.7183V38.5032H35.9518V33.3806Z" fill="#D44416"/>
<path d="M41.6901 33.2922C43.0089 33.2922 43.6857 33.9663 43.6857 33.9663L43.3075 34.5008C43.3075 34.5008 42.6705 33.943 41.7249 33.943C40.4957 33.943 39.6994 34.8123 39.6994 35.9C39.6994 36.9878 40.5156 37.9221 41.7349 37.9221C42.77 37.9221 43.4269 37.2527 43.4269 37.2527L43.84 37.7687C43.84 37.7687 43.0885 38.5822 41.71 38.5822C40.0627 38.5822 38.9081 37.4061 38.9081 35.9047C38.9081 34.4032 40.1025 33.2876 41.695 33.2876L41.6901 33.2922Z" fill="#D44416"/>
<path d="M48.6674 37.0297H46.6021L46.0596 38.5032H45.2683L47.2391 33.3806H48.0453L50.0161 38.5032H49.2149L48.6624 37.0297H48.6674ZM47.6323 34.0825C47.6323 34.0825 47.5078 34.5474 47.4133 34.8077L46.8011 36.4347H48.4634L47.8562 34.8077C47.7617 34.5474 47.6472 34.0825 47.6472 34.0825H47.6323Z" fill="#D44416"/>
<path d="M54.2861 33.2922C55.6049 33.2922 56.2818 33.9663 56.2818 33.9663L55.9035 34.5008C55.9035 34.5008 55.2665 33.943 54.3209 33.943C53.0917 33.943 52.2954 34.8123 52.2954 35.9C52.2954 36.9878 53.1116 37.9221 54.3309 37.9221C55.3661 37.9221 56.023 37.2527 56.023 37.2527L56.4361 37.7687C56.4361 37.7687 55.7194 38.5311 54.4255 38.5822L54.3657 38.8565C54.6842 38.8936 54.9231 39.0749 54.9231 39.3864C54.9231 39.8373 54.525 39.9953 54.1318 39.9953C53.883 39.9953 53.7038 39.9442 53.7038 39.9442V39.5212C53.7038 39.5212 53.8581 39.5723 54.0323 39.5723C54.2264 39.5723 54.4055 39.5165 54.4055 39.3492C54.4055 39.1958 54.2363 39.1261 53.9925 39.1261C53.9228 39.1261 53.8531 39.1354 53.8531 39.1354L54.0074 38.5682C52.5243 38.4381 51.5091 37.3132 51.5091 35.9047C51.5091 34.4172 52.7035 33.2876 54.2961 33.2876L54.2861 33.2922Z" fill="#D44416"/>
<path d="M61.2635 37.0296H59.1981L58.6557 38.5032H57.8644L59.8352 33.3806H60.6414L62.6122 38.5032H61.8109L61.2585 37.0296H61.2635ZM59.7257 32.0976C60.2482 32.0976 60.3727 32.5903 60.7061 32.5903C60.94 32.5903 61.0097 32.33 61.0097 32.1208H61.5521C61.5521 32.7251 61.2884 33.0412 60.7608 33.0412C60.2333 33.0412 60.1139 32.5485 59.7804 32.5485C59.5465 32.5485 59.4768 32.8042 59.4768 33.018H58.9344C58.9344 32.409 59.1981 32.0976 59.7257 32.0976ZM60.2283 34.0871C60.2283 34.0871 60.1039 34.552 60.0094 34.8123L59.3972 36.4393H61.0594L60.4523 34.8123C60.3577 34.552 60.2433 34.0871 60.2433 34.0871H60.2283Z" fill="#D44416"/>
<path d="M66.8972 33.2923C68.4798 33.2923 69.709 34.4312 69.709 35.9047C69.709 37.3783 68.4798 38.5869 66.8972 38.5869C65.3146 38.5869 64.0803 37.4108 64.0803 35.9047C64.0803 34.3986 65.3146 33.2923 66.8972 33.2923ZM66.8972 37.9268C68.0169 37.9268 68.9177 37.0575 68.9177 35.9047C68.9177 34.7519 68.0169 33.9477 66.8972 33.9477C65.7774 33.9477 64.8716 34.7891 64.8716 35.9047C64.8716 37.0204 65.7824 37.9268 66.8972 37.9268Z" fill="#D44416"/>
<path d="M74.7504 35.9419C74.7504 35.319 75.2879 34.817 75.9548 34.817C76.6217 34.817 77.1492 35.319 77.1492 35.9419C77.1492 36.5648 76.6117 37.0668 75.9548 37.0668C75.2979 37.0668 74.7504 36.5601 74.7504 35.9419Z" fill="#0994A7"/>
<path d="M82.5788 37.369C82.5788 37.369 83.1611 37.9222 83.9773 37.9222C84.4899 37.9222 84.9229 37.6525 84.9229 37.1691C84.9229 36.0581 82.2653 36.2998 82.2653 34.724C82.2653 33.9245 83.0018 33.2969 84.037 33.2969C85.0722 33.2969 85.5897 33.8129 85.5897 33.8129L85.2414 34.4079C85.2414 34.4079 84.7387 33.9663 84.037 33.9663C83.4547 33.9663 83.0417 34.3057 83.0417 34.7147C83.0417 35.7746 85.6992 35.491 85.6992 37.1505C85.6992 37.9407 85.0473 38.5962 83.9574 38.5962C82.7928 38.5962 82.1409 37.9222 82.1409 37.9222L82.5738 37.3783L82.5788 37.369Z" fill="#D44416"/>
<path d="M87.7895 33.3806H88.5559V36.6903C88.5559 37.4759 89.0983 37.9315 89.9394 37.9315C90.7805 37.9315 91.3379 37.4759 91.3379 36.6764V33.3853H92.1043V36.695C92.1043 37.8338 91.2284 38.5962 89.9444 38.5962C88.6604 38.5962 87.7845 37.8338 87.7845 36.695V33.3853L87.7895 33.3806Z" fill="#D44416"/>
<path d="M94.5976 37.369C94.5976 37.369 95.1799 37.9222 95.9961 37.9222C96.5087 37.9222 96.9417 37.6525 96.9417 37.1691C96.9417 36.0581 94.2841 36.2998 94.2841 34.724C94.2841 33.9245 95.0206 33.2969 96.0558 33.2969C97.091 33.2969 97.6085 33.8129 97.6085 33.8129L97.2602 34.4079C97.2602 34.4079 96.7575 33.9663 96.0558 33.9663C95.4735 33.9663 95.0605 34.3057 95.0605 34.7147C95.0605 35.7746 97.718 35.491 97.718 37.1505C97.718 37.9407 97.0661 38.5962 95.9762 38.5962C94.8116 38.5962 94.1597 37.9222 94.1597 37.9222L94.5926 37.3783L94.5976 37.369Z" fill="#D44416"/>
<path d="M101.062 34.0035H99.1812V33.3806H103.71V34.0035H101.829V38.4986H101.062V34.0035Z" fill="#D44416"/>
<path d="M105.556 33.3806H108.741V34.0035H106.328V35.6072H108.294V36.2301H106.328V37.8756H108.876V38.4985H105.561V33.3759L105.556 33.3806Z" fill="#D44416"/>
<path d="M111.071 33.3806H111.832L114.271 36.7089C114.475 36.9832 114.728 37.448 114.728 37.448H114.743C114.743 37.448 114.689 36.9925 114.689 36.7089V33.3806H115.455V38.5032H114.704L112.255 35.1796C112.051 34.896 111.797 34.4312 111.797 34.4312H111.782C111.782 34.4312 111.837 34.8867 111.837 35.1796V38.5032H111.071V33.3806Z" fill="#D44416"/>
<path d="M119.188 34.0035H117.306V33.3806H121.835V34.0035H119.954V38.4986H119.188V34.0035Z" fill="#D44416"/>
<path d="M126.065 37.0297H124L123.458 38.5032H122.666L124.637 33.3806H125.443L127.414 38.5032H126.613L126.061 37.0297H126.065ZM125.03 34.0825C125.03 34.0825 124.906 34.5474 124.811 34.8077L124.199 36.4347H125.861L125.254 34.8077C125.16 34.5474 125.045 34.0825 125.045 34.0825H125.03Z" fill="#D44416"/>
<path d="M129.29 33.3806H131.206C132.132 33.3806 132.799 33.8594 132.799 34.6868C132.799 35.1889 132.535 35.584 132.117 35.7885V35.8025C132.69 35.9605 133.018 36.4718 133.018 37.0436C133.018 38.0105 132.217 38.5032 131.256 38.5032H129.29V33.3806ZM131.206 35.5329C131.704 35.5329 132.013 35.2075 132.013 34.7566C132.013 34.3057 131.719 34.0035 131.192 34.0035H130.057V35.5329H131.206ZM131.291 37.8757C131.883 37.8757 132.232 37.527 132.232 37.0064C132.232 36.4858 131.858 36.1279 131.286 36.1279H130.057V37.8757H131.291Z" fill="#D44416"/>
<path d="M135.277 33.3806H136.044V38.5032H135.277V33.3806Z" fill="#D44416"/>
<path d="M138.602 33.3806H139.368V37.8756H141.822V38.4985H138.597V33.3759L138.602 33.3806Z" fill="#D44416"/>
<path d="M143.773 33.3806H144.539V38.5032H143.773V33.3806Z" fill="#D44416"/>
<path d="M147.097 33.3806H148.914C150.591 33.3806 151.696 34.3149 151.696 35.9326C151.696 37.5502 150.591 38.4985 148.914 38.4985H147.097V33.3759V33.3806ZM148.859 37.8756C150.093 37.8756 150.899 37.1923 150.899 35.9326C150.899 34.6728 150.083 34.0035 148.859 34.0035H147.864V37.8756H148.859Z" fill="#D44416"/>
<path d="M156.593 37.0297H154.527L153.985 38.5032H153.194L155.164 33.3806H155.971L157.941 38.5032H157.14L156.588 37.0297H156.593ZM155.558 34.0825C155.558 34.0825 155.433 34.5474 155.339 34.8077L154.726 36.4347H156.389L155.781 34.8077C155.687 34.5474 155.572 34.0825 155.572 34.0825H155.558Z" fill="#D44416"/>
<path d="M159.818 33.3806H161.634C163.311 33.3806 164.416 34.3149 164.416 35.9326C164.416 37.5502 163.311 38.4985 161.634 38.4985H159.818V33.3759V33.3806ZM161.579 37.8756C162.814 37.8756 163.62 37.1923 163.62 35.9326C163.62 34.6728 162.804 34.0035 161.579 34.0035H160.584V37.8756H161.579Z" fill="#D44416"/>
<path d="M166.626 33.3806H169.811V34.0035H167.397V35.6072H169.363V36.2301H167.397V37.8756H169.945V38.4985H166.631V33.3759L166.626 33.3806Z" fill="#D44416"/>
</g>
<defs>
<clipPath id="clip0_107_278">
<rect width="170" height="40" fill="white"/>
</clipPath>
</defs>
</svg>
