<svg width="384" height="91" viewBox="0 0 384 91" fill="none" xmlns="http://www.w3.org/2000/svg">
<g clip-path="url(#clip0_108_919)">
<path d="M0 57.4447V0.930622C0 0.391284 0.415937 0 0.989256 0H22.0896C37.0634 0 48.8108 9.88786 48.8108 23.8155C48.8108 37.7431 36.6474 48.5721 21.2578 48.5721H11.9947V57.4447C11.9947 57.9947 11.5788 58.3754 11.0055 58.3754H0.989256C0.404696 58.3754 0 57.9841 0 57.4447ZM21.1004 38.0603C29.8688 38.0603 36.8161 32.2228 36.8161 23.8155C36.8161 15.4081 29.7002 10.5012 21.8423 10.5012H12.5793C12.2533 10.5012 11.9947 10.6599 11.9947 11.0511V38.0603H21.1004Z" fill="white"/>
<path d="M54.6115 57.4447V14.0122C54.6115 13.4623 55.0274 13.0816 55.6007 13.0816H63.9532C64.5377 13.0816 64.9424 13.4729 64.9424 14.0122V16.1167C68.1688 13.6209 72.6429 12.5317 75.7793 12.5317C78.7583 12.5317 80.9054 12.8384 82.7266 13.4623C83.3898 13.695 83.3898 14.1603 83.3111 14.5515L81.4113 21.711C81.2427 22.3349 80.7481 22.5676 80.2534 22.4936C79.0956 22.1869 77.5217 22.1023 76.4425 22.1023C71.0691 22.1023 65.7631 25.1374 65.7631 33.6187V57.4342C65.7631 58.0581 65.3471 58.3648 64.7738 58.3648H55.5895C55.0049 58.3648 54.6002 58.0581 54.6002 57.4342L54.6115 57.4447Z" fill="white"/>
<path d="M80.512 35.6492C80.512 22.7262 92.0121 12.1404 105.749 12.1404C119.486 12.1404 131.065 22.7262 131.065 35.6492C131.065 38.3776 130.076 40.5561 127.67 40.5561H92.6641C94.5639 45.9283 99.6114 49.6614 105.817 49.6614C111.111 49.6614 115.001 47.5569 117.98 44.1305C118.306 43.7392 118.891 43.5806 119.464 43.9719L126.085 48.7942C126.748 49.2595 126.58 49.8094 126.333 50.1161C121.285 55.9536 114.09 59.38 105.727 59.38C91.9896 59.38 80.4895 48.7202 80.4895 35.6386L80.512 35.6492ZM92.6753 30.8268H119.07C117.002 25.6132 111.786 21.8802 105.749 21.8802C99.7125 21.8802 94.5752 25.4652 92.6753 30.8268Z" fill="white"/>
<path d="M134.707 51.8399C134.381 51.5332 134.213 51.0573 134.707 50.4439L139.676 44.9131C140.171 44.3632 140.755 44.2891 141.25 44.6804C145.634 48.0222 149.771 49.82 155.808 49.82C160.855 49.82 164.082 48.0328 164.082 45.7697C164.082 38.8429 135.787 42.1106 135.787 25.6873C135.787 17.1213 144.386 12.1404 154.74 12.1404C163.43 12.1404 169.556 15.3341 173.85 18.9085C174.266 19.2998 174.345 19.7651 173.929 20.2304L168.713 25.9094C168.297 26.3006 167.724 26.3006 167.308 25.9834C164.082 23.5722 160.271 21.5418 154.65 21.5418C149.85 21.5418 146.949 23.0223 146.949 24.8941C146.949 31.4296 175.582 28.8598 175.582 44.2786C175.582 52.6859 167.881 59.38 155.718 59.38C146.781 59.38 140.081 56.6516 134.696 51.8293L134.707 51.8399Z" fill="white"/>
<path d="M179.719 35.6492C179.719 22.7262 191.219 12.1404 204.956 12.1404C218.693 12.1404 230.272 22.7262 230.272 35.6492C230.272 38.3776 229.283 40.5561 226.877 40.5561H191.871C193.771 45.9283 198.818 49.6614 205.023 49.6614C210.318 49.6614 214.208 47.5569 217.187 44.1305C217.513 43.7392 218.097 43.5806 218.671 43.9719L225.292 48.7942C225.955 49.2595 225.787 49.8094 225.539 50.1161C220.492 55.9536 213.297 59.38 204.933 59.38C191.196 59.38 179.696 48.7202 179.696 35.6386L179.719 35.6492ZM191.882 30.8268H218.277C216.209 25.6132 210.993 21.8802 204.956 21.8802C198.919 21.8802 193.782 25.4652 191.882 30.8268Z" fill="white"/>
<path d="M235.229 57.4447V14.0122C235.229 13.4623 235.645 13.0816 236.219 13.0816H244.571C245.156 13.0816 245.56 13.4729 245.56 14.0122V16.1167C249.619 13.2402 254.666 12.0663 259.208 12.0663C271.371 12.0663 279.071 19.6911 279.071 30.9009V57.4447C279.071 58.0687 278.655 58.3754 278.082 58.3754H268.898C268.313 58.3754 267.909 58.0687 267.909 57.4447V31.2921C267.909 24.2067 263.356 21.7956 257.982 21.7956C251.608 21.7956 246.403 25.8459 246.403 32.54V57.4447C246.403 58.0687 245.988 58.3754 245.414 58.3754H236.23C235.645 58.3754 235.241 58.0687 235.241 57.4447H235.229Z" fill="white"/>
<path d="M284.883 35.6492C284.883 22.7262 296.383 12.1404 310.121 12.1404C318.068 12.1404 325.184 15.4927 330.063 21.3303C330.31 21.637 330.31 22.2609 329.894 22.5782L323.194 27.6331C322.61 28.0244 322.037 27.8658 321.711 27.4745C318.81 23.8895 314.673 21.8696 310.132 21.8696C302.353 21.8696 296.069 28.3311 296.069 35.6492V35.7232C296.069 43.1999 302.353 49.6614 310.132 49.6614C315.427 49.6614 319.316 47.5569 322.216 44.1305C322.542 43.7392 323.127 43.5806 323.7 43.9719L330.49 48.7942C331.154 49.2595 330.985 49.8094 330.738 50.1161C325.69 55.9536 318.496 59.38 310.132 59.38C296.395 59.38 284.895 48.7202 284.895 35.6386L284.883 35.6492Z" fill="white"/>
<path d="M333.447 35.6492C333.447 22.7262 344.947 12.1404 358.684 12.1404C372.421 12.1404 384 22.7262 384 35.6492C384 38.3776 383.011 40.5561 380.605 40.5561H345.599C347.499 45.9283 352.546 49.6614 358.752 49.6614C364.046 49.6614 367.936 47.5569 370.915 44.1305C371.241 43.7392 371.825 43.5806 372.399 43.9719L379.02 48.7942C379.683 49.2595 379.515 49.8094 379.267 50.1161C374.22 55.9536 367.025 59.38 358.662 59.38C344.924 59.38 333.424 48.7202 333.424 35.6386L333.447 35.6492ZM345.61 30.8268H372.005C369.937 25.6132 364.721 21.8802 358.684 21.8802C352.647 21.8802 347.51 25.4652 345.61 30.8268Z" fill="white"/>
<path d="M6.43014 75.7399C9.40915 75.7399 10.938 77.2733 10.938 77.2733L10.0836 78.4895C10.0836 78.4895 8.64473 77.2204 6.50883 77.2204C3.73217 77.2204 1.93352 79.198 1.93352 81.6726C1.93352 84.1472 3.77714 86.2729 6.53132 86.2729C8.86956 86.2729 10.3534 84.75 10.3534 84.75L11.2865 85.9239C11.2865 85.9239 9.58902 87.7745 6.47511 87.7745C2.75416 87.7745 0.146118 85.099 0.146118 81.6832C0.146118 78.2674 2.84409 75.7293 6.44138 75.7293L6.43014 75.7399Z" fill="#01D7DF"/>
<path d="M21.4826 75.7399C25.0574 75.7399 27.8341 78.3309 27.8341 81.6832C27.8341 85.0356 25.0574 87.7851 21.4826 87.7851C17.9078 87.7851 15.1199 85.1096 15.1199 81.6832C15.1199 78.2568 17.9078 75.7399 21.4826 75.7399ZM21.4826 86.2834C24.0119 86.2834 26.0467 84.3059 26.0467 81.6832C26.0467 79.0606 24.0119 77.231 21.4826 77.231C18.9532 77.231 16.9073 79.1452 16.9073 81.6832C16.9073 84.2213 18.9645 86.2834 21.4826 86.2834Z" fill="#01D7DF"/>
<path d="M33.3762 75.9409H35.1973L38.0415 82.2437C38.3225 82.8888 38.6597 83.8088 38.6597 83.8088H38.6935C38.6935 83.8088 39.0307 82.8888 39.3117 82.2437L42.1559 75.9409H43.977L44.9775 87.5948H43.2575L42.6392 80.2556C42.583 79.547 42.6168 78.5424 42.6168 78.5424H42.583C42.583 78.5424 42.2121 79.6105 41.9198 80.2556L39.4466 85.5009H37.9066L35.4559 80.2556C35.1749 79.6316 34.7926 78.5106 34.7926 78.5106H34.7589C34.7589 78.5106 34.7814 79.547 34.7252 80.2556L34.1294 87.5948H32.3982L33.3987 75.9409H33.3762Z" fill="#01D7DF"/>
<path d="M50.1823 75.9409H51.9135V83.4704C51.9135 85.2577 53.1388 86.294 55.0386 86.294C56.9384 86.294 58.1975 85.2577 58.1975 83.4387V75.9514H59.9287V83.481C59.9287 86.0719 57.9502 87.8063 55.0499 87.8063C52.1495 87.8063 50.171 86.0719 50.171 83.481V75.9514L50.1823 75.9409Z" fill="#01D7DF"/>
<path d="M65.527 75.9409H67.2469L72.7553 83.5127C73.2162 84.1367 73.7895 85.1942 73.7895 85.1942H73.8232C73.8232 85.1942 73.6996 84.1578 73.6996 83.5127V75.9409H75.4308V87.5948H73.7333L68.2025 80.0335C67.7416 79.3884 67.1682 78.3309 67.1682 78.3309H67.1345C67.1345 78.3309 67.2582 79.3672 67.2582 80.0335V87.5948H65.527V75.9409Z" fill="#01D7DF"/>
<path d="M81.209 75.9409H82.9402V87.5948H81.209V75.9409Z" fill="#01D7DF"/>
<path d="M94.1705 75.7399C97.1495 75.7399 98.6784 77.2733 98.6784 77.2733L97.824 78.4895C97.824 78.4895 96.3851 77.2204 94.2492 77.2204C91.4725 77.2204 89.6739 79.198 89.6739 81.6726C89.6739 84.1472 91.5175 86.2729 94.2717 86.2729C96.6099 86.2729 98.0938 84.75 98.0938 84.75L99.0268 85.9239C99.0268 85.9239 97.3294 87.7745 94.2155 87.7745C90.4945 87.7745 87.8865 85.099 87.8865 81.6832C87.8865 78.2674 90.5844 75.7293 94.1817 75.7293L94.1705 75.7399Z" fill="#01D7DF"/>
<path d="M109.931 84.2424H105.266L104.04 87.5948H102.253L106.705 75.9409H108.526L112.977 87.5948H111.168L109.92 84.2424H109.931ZM107.593 77.5377C107.593 77.5377 107.312 78.5952 107.098 79.1875L105.715 82.8888H109.47L108.099 79.1875C107.885 78.5952 107.627 77.5377 107.627 77.5377H107.593Z" fill="#01D7DF"/>
<path d="M122.623 75.7399C125.602 75.7399 127.131 77.2733 127.131 77.2733L126.276 78.4895C126.276 78.4895 124.837 77.2204 122.701 77.2204C119.925 77.2204 118.126 79.198 118.126 81.6726C118.126 84.1472 119.97 86.2729 122.724 86.2729C125.062 86.2729 126.546 84.75 126.546 84.75L127.479 85.9239C127.479 85.9239 125.86 87.6582 122.938 87.7745L122.803 88.3985C123.522 88.4831 124.062 88.8955 124.062 89.6041C124.062 90.6299 123.162 90.9894 122.274 90.9894C121.712 90.9894 121.308 90.8731 121.308 90.8731V89.9107C121.308 89.9107 121.656 90.0271 122.049 90.0271C122.488 90.0271 122.893 89.9002 122.893 89.5195C122.893 89.1705 122.51 89.0118 121.96 89.0118C121.802 89.0118 121.645 89.033 121.645 89.033L121.993 87.7428C118.643 87.4467 116.35 84.8875 116.35 81.6832C116.35 78.2991 119.048 75.7293 122.645 75.7293L122.623 75.7399Z" fill="#01D7DF"/>
<path d="M138.383 84.2424H133.718L132.493 87.5948H130.705L135.157 75.9408H136.978L141.43 87.5948H139.62L138.372 84.2424H138.383ZM134.91 73.0221C136.09 73.0221 136.371 74.143 137.124 74.143C137.653 74.143 137.81 73.5508 137.81 73.0749H139.035C139.035 74.4497 138.44 75.1688 137.248 75.1688C136.056 75.1688 135.787 74.0479 135.033 74.0479C134.505 74.0479 134.348 74.6295 134.348 75.116H133.122C133.122 73.7306 133.718 73.0221 134.91 73.0221ZM136.045 77.5483C136.045 77.5483 135.764 78.6058 135.551 79.198L134.168 82.8993H137.923L136.551 79.198C136.337 78.6058 136.079 77.5483 136.079 77.5483H136.045Z" fill="#01D7DF"/>
<path d="M151.109 75.7399C154.684 75.7399 157.46 78.3309 157.46 81.6832C157.46 85.0356 154.684 87.7851 151.109 87.7851C147.534 87.7851 144.746 85.1096 144.746 81.6832C144.746 78.2568 147.534 75.7399 151.109 75.7399ZM151.109 86.2834C153.638 86.2834 155.673 84.3059 155.673 81.6832C155.673 79.0606 153.638 77.231 151.109 77.231C148.579 77.231 146.534 79.1452 146.534 81.6832C146.534 84.2213 148.591 86.2834 151.109 86.2834Z" fill="#01D7DF"/>
<path d="M168.848 81.7678C168.848 80.3507 170.062 79.2086 171.568 79.2086C173.075 79.2086 174.266 80.3507 174.266 81.7678C174.266 83.1849 173.052 84.327 171.568 84.327C170.085 84.327 168.848 83.1743 168.848 81.7678Z" fill="white"/>
<path d="M186.531 85.0144C186.531 85.0144 187.846 86.2729 189.69 86.2729C190.848 86.2729 191.826 85.6595 191.826 84.5597C191.826 82.0322 185.823 82.5821 185.823 78.9971C185.823 77.1781 187.487 75.7505 189.825 75.7505C192.163 75.7505 193.332 76.9243 193.332 76.9243L192.545 78.278C192.545 78.278 191.41 77.2733 189.825 77.2733C188.51 77.2733 187.576 78.0453 187.576 78.9759C187.576 81.3871 193.579 80.742 193.579 84.5174C193.579 86.3152 192.107 87.8063 189.645 87.8063C187.014 87.8063 185.542 86.2729 185.542 86.2729L186.52 85.0356L186.531 85.0144Z" fill="#01D7DF"/>
<path d="M198.301 75.9409H200.032V83.4704C200.032 85.2577 201.257 86.294 203.157 86.294C205.057 86.294 206.316 85.2577 206.316 83.4387V75.9514H208.047V83.481C208.047 86.0719 206.069 87.8063 203.168 87.8063C200.268 87.8063 198.29 86.0719 198.29 83.481V75.9514L198.301 75.9409Z" fill="#01D7DF"/>
<path d="M213.679 85.0144C213.679 85.0144 214.995 86.2729 216.838 86.2729C217.996 86.2729 218.974 85.6595 218.974 84.5597C218.974 82.0322 212.971 82.5821 212.971 78.9971C212.971 77.1781 214.635 75.7505 216.973 75.7505C219.311 75.7505 220.48 76.9243 220.48 76.9243L219.694 78.278C219.694 78.278 218.558 77.2733 216.973 77.2733C215.658 77.2733 214.725 78.0453 214.725 78.9759C214.725 81.3871 220.728 80.742 220.728 84.5174C220.728 86.3152 219.255 87.8063 216.793 87.8063C214.163 87.8063 212.69 86.2729 212.69 86.2729L213.668 85.0356L213.679 85.0144Z" fill="#01D7DF"/>
<path d="M228.282 77.3579H224.033V75.9409H234.263V77.3579H230.013V87.5842H228.282V77.3579Z" fill="#01D7DF"/>
<path d="M238.433 75.9408H245.628V77.3579H240.176V81.0064H244.616V82.4235H240.176V86.1671H245.931V87.5842H238.444V75.9303L238.433 75.9408Z" fill="#01D7DF"/>
<path d="M250.889 75.9409H252.609L258.117 83.5127C258.578 84.1367 259.151 85.1942 259.151 85.1942H259.185C259.185 85.1942 259.061 84.1578 259.061 83.5127V75.9409H260.793V87.5948H259.095L253.564 80.0335C253.103 79.3884 252.53 78.3309 252.53 78.3309H252.496C252.496 78.3309 252.62 79.3672 252.62 80.0335V87.5948H250.889V75.9409Z" fill="#01D7DF"/>
<path d="M269.224 77.3579H264.975V75.9409H275.204V77.3579H270.955V87.5842H269.224V77.3579Z" fill="#01D7DF"/>
<path d="M284.76 84.2424H280.094L278.869 87.5948H277.082L281.533 75.9409H283.354L287.806 87.5948H285.996L284.748 84.2424H284.76ZM282.421 77.5377C282.421 77.5377 282.14 78.5952 281.927 79.1875L280.544 82.8888H284.299L282.927 79.1875C282.714 78.5952 282.455 77.5377 282.455 77.5377H282.421Z" fill="#01D7DF"/>
<path d="M292.044 75.9409H296.372C298.463 75.9409 299.969 77.0301 299.969 78.9125C299.969 80.0546 299.374 80.9535 298.429 81.4188V81.4506C299.722 81.8101 300.464 82.9734 300.464 84.2742C300.464 86.4738 298.654 87.5948 296.485 87.5948H292.044V75.9409ZM296.372 80.8372C297.496 80.8372 298.193 80.0969 298.193 79.0711C298.193 78.0453 297.53 77.3579 296.338 77.3579H293.775V80.8372H296.372ZM296.563 86.1671C297.901 86.1671 298.688 85.374 298.688 84.1896C298.688 83.0051 297.845 82.1908 296.552 82.1908H293.775V86.1671H296.563Z" fill="#01D7DF"/>
<path d="M305.568 75.9409H307.299V87.5948H305.568V75.9409Z" fill="#01D7DF"/>
<path d="M313.077 75.9408H314.808V86.1671H320.35V87.5842H313.066V75.9303L313.077 75.9408Z" fill="#01D7DF"/>
<path d="M324.757 75.9409H326.488V87.5948H324.757V75.9409Z" fill="#01D7DF"/>
<path d="M332.266 75.9408H336.37C340.158 75.9408 342.654 78.0665 342.654 81.7467C342.654 85.4268 340.158 87.5842 336.37 87.5842H332.266V75.9303V75.9408ZM336.246 86.1671C339.034 86.1671 340.855 84.6125 340.855 81.7467C340.855 78.8808 339.011 77.3579 336.246 77.3579H333.998V86.1671H336.246Z" fill="#01D7DF"/>
<path d="M353.715 84.2424H349.05L347.825 87.5948H346.037L350.489 75.9409H352.31L356.762 87.5948H354.952L353.704 84.2424H353.715ZM351.377 77.5377C351.377 77.5377 351.096 78.5952 350.882 79.1875L349.5 82.8888H353.254L351.883 79.1875C351.669 78.5952 351.411 77.5377 351.411 77.5377H351.377Z" fill="#01D7DF"/>
<path d="M361 75.9408H365.103C368.891 75.9408 371.387 78.0665 371.387 81.7467C371.387 85.4268 368.891 87.5842 365.103 87.5842H361V75.9303V75.9408ZM364.979 86.1671C367.767 86.1671 369.588 84.6125 369.588 81.7467C369.588 78.8808 367.745 77.3579 364.979 77.3579H362.731V86.1671H364.979Z" fill="#01D7DF"/>
<path d="M376.378 75.9408H383.573V77.3579H378.121V81.0064H382.561V82.4235H378.121V86.1671H383.876V87.5842H376.389V75.9303L376.378 75.9408Z" fill="#01D7DF"/>
</g>
<defs>
<clipPath id="clip0_108_919">
<rect width="384" height="91" fill="white"/>
</clipPath>
</defs>
</svg>
